{
  "accessors": [
    {
      "bufferView": 2,
      "componentType": 5126,
      "count": 65532,
      "max": [
        0.082777999341487885,
        0.043563008308410645,
        0.058880999684333801
      ],
      "min": [
        0.014719000086188316,
        4.2006373405456543e-05,
        0.00023999996483325958
      ],
      "type": "VEC3"
    },
    {
      "bufferView": 2,
      "byteOffset": 786384,
      "componentType": 5126,
      "count": 65532,
      "max": [
        0.99233132600784302,
        0.99847698211669922,
        0.89085161685943604
      ],
      "min": [
        -0.99665987491607666,
        -0.99995332956314087,
        -0.99999541044235229
      ],
      "type": "VEC3"
    },
    {
      "bufferView": 3,
      "componentType": 5126,
      "count": 65532,
      "max": [
        0.99999958276748657,
        0.92344409227371216,
        0.98102867603302002,
        1
      ],
      "min": [
        -0.90536129474639893,
        -0.99924415349960327,
        -0.89730966091156006,
        1
      ],
      "type": "VEC4"
    },
    {
      "bufferView": 1,
      "componentType": 5126,
      "count": 65532,
      "max": [
        0.95805299282073975,
        0.98310601711273193
      ],
      "min": [
        0.19022199511528015,
        0.0058220000937581062
      ],
      "type": "VEC2"
    },
    {
      "bufferView": 0,
      "componentType": 5125,
      "count": 376500,
      "max": [
        65531
      ],
      "min": [
        0
      ],
      "type": "SCALAR"
    },
    {
      "bufferView": 2,
      "byteOffset": 1572768,
      "componentType": 5126,
      "count": 65532,
      "max": [
        0.095704004168510437,
        0.046134009957313538,
        0.05912499874830246
      ],
      "min": [
        0,
        0,
        8.9000910520553589e-05
      ],
      "type": "VEC3"
    },
    {
      "bufferView": 2,
      "byteOffset": 2359152,
      "componentType": 5126,
      "count": 65532,
      "max": [
        0.99677449464797974,
        0.99998646974563599,
        0.99997580051422119
      ],
      "min": [
        -0.99997580051422119,
        -0.99999386072158813,
        -0.99960964918136597
      ],
      "type": "VEC3"
    },
    {
      "bufferView": 3,
      "byteOffset": 1048512,
      "componentType": 5126,
      "count": 65532,
      "max": [
        0.99996668100357056,
        0.99971306324005127,
        0.99998390674591064,
        1
      ],
      "min": [
        -0.99987834692001343,
        -0.99999541044235229,
        -0.99996304512023926,
        -1
      ],
      "type": "VEC4"
    },
    {
      "bufferView": 1,
      "byteOffset": 524256,
      "componentType": 5126,
      "count": 65532,
      "max": [
        0.98732101917266846,
        0.99928700923919678
      ],
      "min": [
        0.003653000108897686,
        0.0038379998877644539
      ],
      "type": "VEC2"
    },
    {
      "bufferView": 0,
      "byteOffset": 1506000,
      "componentType": 5125,
      "count": 341643,
      "max": [
        65531
      ],
      "min": [
        0
      ],
      "type": "SCALAR"
    },
    {
      "bufferView": 2,
      "byteOffset": 3145536,
      "componentType": 5126,
      "count": 65532,
      "max": [
        0.094421997666358948,
        0.046326003968715668,
        0.055204000324010849
      ],
      "min": [
        1.0021030902862549e-06,
        0.005008012056350708,
        0
      ],
      "type": "VEC3"
    },
    {
      "bufferView": 2,
      "byteOffset": 3931920,
      "componentType": 5126,
      "count": 65532,
      "max": [
        0.99981117248535156,
        0.99996662139892578,
        0.99986457824707031
      ],
      "min": [
        -0.99853569269180298,
        -0.99902331829071045,
        -0.99994933605194092
      ],
      "type": "VEC3"
    },
    {
      "bufferView": 3,
      "byteOffset": 2097024,
      "componentType": 5126,
      "count": 65532,
      "max": [
        0.99998438358306885,
        0.99970561265945435,
        0.99990606307983398,
        1
      ],
      "min": [
        -0.99949753284454346,
        -0.99999541044235229,
        -0.99990671873092651,
        -1
      ],
      "type": "VEC4"
    },
    {
      "bufferView": 1,
      "byteOffset": 1048512,
      "componentType": 5126,
      "count": 65532,
      "max": [
        0.98828500509262085,
        0.99918198585510254
      ],
      "min": [
        0.0050639999099075794,
        0.0049310000613331795
      ],
      "type": "VEC2"
    },
    {
      "bufferView": 0,
      "byteOffset": 2872572,
      "componentType": 5125,
      "count": 326718,
      "max": [
        65531
      ],
      "min": [
        0
      ],
      "type": "SCALAR"
    },
    {
      "bufferView": 2,
      "byteOffset": 4718304,
      "componentType": 5126,
      "count": 27426,
      "max": [
        0.095759004354476929,
        0.04632800817489624,
        0.054625999182462692
      ],
      "min": [
        0.00064200162887573242,
        0.0060470104217529297,
        0
      ],
      "type": "VEC3"
    },
    {
      "bufferView": 2,
      "byteOffset": 5047416,
      "componentType": 5126,
      "count": 27426,
      "max": [
        0.99988728761672974,
        0.9999735951423645,
        0.99988949298858643
      ],
      "min": [
        -0.99913299083709717,
        -0.99873119592666626,
        -0.99972337484359741
      ],
      "type": "VEC3"
    },
    {
      "bufferView": 3,
      "byteOffset": 3145536,
      "componentType": 5126,
      "count": 27426,
      "max": [
        0.99996531009674072,
        0.9998437762260437,
        0.99996525049209595,
        1
      ],
      "min": [
        -0.99996691942214966,
        -0.99710220098495483,
        -0.99996310472488403,
        -1
      ],
      "type": "VEC4"
    },
    {
      "bufferView": 1,
      "byteOffset": 1572768,
      "componentType": 5126,
      "count": 27426,
      "max": [
        0.99825698137283325,
        0.99725997447967529
      ],
      "min": [
        0.0053969998843967915,
        0.0014120000414550304
      ],
      "type": "VEC2"
    },
    {
      "bufferView": 0,
      "byteOffset": 4179444,
      "componentType": 5125,
      "count": 131667,
      "max": [
        27425
      ],
      "min": [
        0
      ],
      "type": "SCALAR"
    }
  ],
  "asset": {
    "extras": {
      "author": "Samantha Porter (https://sketchfab.com/port0228)",
      "license": "CC-BY-4.0 (http://creativecommons.org/licenses/by/4.0/)",
      "source": "https://sketchfab.com/models/e7f0340f17f746118791928c5cd2152e",
      "title": "Paella Magnet - Madrid, Spain - September 2016"
    },
    "generator": "Sketchfab-3.18.6",
    "version": "2.0"
  },
  "bufferViews": [
    {
      "buffer": 0,
      "byteLength": 4706112,
      "byteOffset": 0,
      "name": "floatBufferViews",
      "target": 34963
    },
    {
      "buffer": 0,
      "byteLength": 1792176,
      "byteOffset": 4706112,
      "byteStride": 8,
      "name": "floatBufferViews",
      "target": 34962
    },
    {
      "buffer": 0,
      "byteLength": 5376528,
      "byteOffset": 6498288,
      "byteStride": 12,
      "name": "floatBufferViews",
      "target": 34962
    },
    {
      "buffer": 0,
      "byteLength": 3584352,
      "byteOffset": 11874816,
      "byteStride": 16,
      "name": "floatBufferViews",
      "target": 34962
    }
  ],
  "buffers": [
    {
      "byteLength": 15459168,
      "uri": "scene.bin"
    }
  ],
  "extensionsUsed": [
    "KHR_materials_unlit"
  ],
  "images": [
    {
      "uri": "textures/material_0_baseColor.jpeg"
    }
  ],
  "materials": [
    {
      "doubleSided": true,
      "emissiveFactor": [
        0,
        0,
        0
      ],
      "extensions": {
        "KHR_materials_unlit": {}
      },
      "name": "material_0",
      "pbrMetallicRoughness": {
        "baseColorFactor": [
          1,
          1,
          1,
          1
        ],
        "baseColorTexture": {
          "index": 0,
          "texCoord": 0
        },
        "metallicFactor": 0,
        "roughnessFactor": 1
      }
    }
  ],
  "meshes": [
    {
      "primitives": [
        {
          "attributes": {
            "NORMAL": 1,
            "POSITION": 0,
            "TANGENT": 2,
            "TEXCOORD_0": 3
          },
          "indices": 4,
          "material": 0,
          "mode": 4
        }
      ]
    },
    {
      "primitives": [
        {
          "attributes": {
            "NORMAL": 6,
            "POSITION": 5,
            "TANGENT": 7,
            "TEXCOORD_0": 8
          },
          "indices": 9,
          "material": 0,
          "mode": 4
        }
      ]
    },
    {
      "primitives": [
        {
          "attributes": {
            "NORMAL": 11,
            "POSITION": 10,
            "TANGENT": 12,
            "TEXCOORD_0": 13
          },
          "indices": 14,
          "material": 0,
          "mode": 4
        }
      ]
    },
    {
      "primitives": [
        {
          "attributes": {
            "NORMAL": 16,
            "POSITION": 15,
            "TANGENT": 17,
            "TEXCOORD_0": 18
          },
          "indices": 19,
          "material": 0,
          "mode": 4
        }
      ]
    }
  ],
  "nodes": [
    {
      "children": [
        1
      ],
      "name": "RootNode (gltf orientation matrix)",
      "rotation": [
        -0.70710678118654746,
        -0,
        -0,
        0.70710678118654757
      ]
    },
    {
      "children": [
        2
      ],
      "matrix": [
        0.99850738048553467,
        0.028979416936635971,
        0.046294759958982468,
        0,
        -0.054520312696695328,
        0.57926607131958008,
        0.81331318616867065,
        0,
        -0.003247641259804368,
        -0.81462323665618896,
        0.57998138666152954,
        0,
        -0.0068249278701841831,
        -0.046216640621423721,
        0.10563945025205612,
        1
      ],
      "name": "RootNode (model correction matrix)"
    },
    {
      "children": [
        3,
        4,
        5,
        6
      ],
      "matrix": [
        1,
        0,
        0,
        0,
        0,
        1,
        0,
        0,
        0,
        0,
        1,
        0,
        -0.045451000332832336,
        -0.14890600740909576,
        -0.021267000585794449,
        1
      ],
      "name": "mag_final.obj.cleaner.gles"
    },
    {
      "mesh": 0,
      "name": ""
    },
    {
      "mesh": 1,
      "name": ""
    },
    {
      "mesh": 2,
      "name": ""
    },
    {
      "mesh": 3,
      "name": ""
    }
  ],
  "samplers": [
    {
      "magFilter": 9729,
      "minFilter": 9987,
      "wrapS": 10497,
      "wrapT": 10497
    }
  ],
  "scene": 0,
  "scenes": [
    {
      "name": "OSG_Scene",
      "nodes": [
        0
      ]
    }
  ],
  "textures": [
    {
      "sampler": 0,
      "source": 0
    }
  ]
}

